HIERARCHY
ROOT hip
{
  OFFSET 0 90.174 2.4664
  CHANNELS 6 Xposition Yposition Zposition Zrotation Xrotation Yrotation
  JOINT abdomen
  {
    OFFSET 0 -1.186 -1.5018
    CHANNELS 6 Xposition Yposition Zposition Zrotation Xrotation Yrotation
    JOINT abdomen2
    {
      OFFSET 0 9.964 0.2134
      CHANNELS 6 Xposition Yposition Zposition Zrotation Xrotation Yrotation
      JOINT chest
      {
        OFFSET 0 13.134 -3.2573
        CHANNELS 6 Xposition Yposition Zposition Zrotation Xrotation Yrotation
        JOINT neck
        {
          OFFSET 0 20.686 -1.6905
          CHANNELS 6 Xposition Yposition Zposition Zrotation Xrotation Yrotation
          JOINT head
          {
            OFFSET 0 7.238 -0.1237
            CHANNELS 6 Xposition Yposition Zposition Zrotation Xrotation Yrotation
            End Site
            {
              OFFSET 0 0 0
            }
          }
        }
        JOINT lCollar
        {
          OFFSET 1.7069 20.075 5.0056
          CHANNELS 6 Xposition Yposition Zposition Zrotation Xrotation Yrotation
          JOINT lShldr
          {
            OFFSET 13.6458 -0.047 -4.849
            CHANNELS 6 Xposition Yposition Zposition Zrotation Xrotation Yrotation
            JOINT lForeArm
            {
              OFFSET 28.3255 -0.9759 2.2888
              CHANNELS 6 Xposition Yposition Zposition Zrotation Xrotation Yrotation
              JOINT lHand
              {
                OFFSET 22.1583 -0.53 10.8316
                CHANNELS 6 Xposition Yposition Zposition Zrotation Xrotation Yrotation
                JOINT lThumb1
                {
                  OFFSET 0.786 0.112 2.5817
                  CHANNELS 6 Xposition Yposition Zposition Zrotation Xrotation Yrotation
                  JOINT lThumb2
                  {
                    OFFSET 0.3601 -0.878 4.2331
                    CHANNELS 6 Xposition Yposition Zposition Zrotation Xrotation Yrotation
                    JOINT lThumb2_End
                    {
                      OFFSET 1.8127 -1.216 2.2227
                      CHANNELS 6 Xposition Yposition Zposition Zrotation Xrotation Yrotation
                      End Site
                      {
                        OFFSET 0.0181 -0.0122 0.0222
                      }
                    }
                  }
                }
                JOINT lCarpal1
                {
                  OFFSET 0.9571 1.114 1.7695
                  CHANNELS 6 Xposition Yposition Zposition Zrotation Xrotation Yrotation
                  JOINT lIndex1
                  {
                    OFFSET 4.1246 0.487 4.1451
                    CHANNELS 6 Xposition Yposition Zposition Zrotation Xrotation Yrotation
                    JOINT lIndex2
                    {
                      OFFSET 3.4052 -1.454 2.7682
                      CHANNELS 6 Xposition Yposition Zposition Zrotation Xrotation Yrotation
                      JOINT lIndex2_End
                      {
                        OFFSET 1.4531 -1.795 1.2713
                        CHANNELS 6 Xposition Yposition Zposition Zrotation Xrotation Yrotation
                        End Site
                        {
                          OFFSET 0.0145 -0.0179 0.0127
                        }
                      }
                    }
                  }
                  JOINT lMid1
                  {
                    OFFSET 5.6954 0.21 2.1184
                    CHANNELS 6 Xposition Yposition Zposition Zrotation Xrotation Yrotation
                    JOINT lMid2
                    {
                      OFFSET 3.9766 -1.54 2.3863
                      CHANNELS 6 Xposition Yposition Zposition Zrotation Xrotation Yrotation
                      JOINT lMid2_End
                      {
                        OFFSET 1.4042 -1.926 1.125
                        CHANNELS 6 Xposition Yposition Zposition Zrotation Xrotation Yrotation
                        End Site
                        {
                          OFFSET 0.014 -0.0193 0.0113
                        }
                      }
                    }
                  }
                }
                JOINT lCarpal2
                {
                  OFFSET 2.0956 0.66 -0.3894
                  CHANNELS 6 Xposition Yposition Zposition Zrotation Xrotation Yrotation
                  JOINT lRing1
                  {
                    OFFSET 5.0395 -0.09 2.4971
                    CHANNELS 6 Xposition Yposition Zposition Zrotation Xrotation Yrotation
                    JOINT lRing2
                    {
                      OFFSET 3.7921 -1.552 1.4806
                      CHANNELS 6 Xposition Yposition Zposition Zrotation Xrotation Yrotation
                      JOINT lRing2_End
                      {
                        OFFSET 1.4655 -1.808 0.9609
                        CHANNELS 6 Xposition Yposition Zposition Zrotation Xrotation Yrotation
                        End Site
                        {
                          OFFSET 0.0147 -0.0181 0.0096
                        }
                      }
                    }
                  }
                  JOINT lPinky1
                  {
                    OFFSET 4.9141 -1.269 0.3591
                    CHANNELS 6 Xposition Yposition Zposition Zrotation Xrotation Yrotation
                    JOINT lPinky2
                    {
                      OFFSET 3.1477 -1.685 0.8462
                      CHANNELS 6 Xposition Yposition Zposition Zrotation Xrotation Yrotation
                      JOINT lPinky2_End
                      {
                        OFFSET 0.8055 -1.585 0.7955
                        CHANNELS 6 Xposition Yposition Zposition Zrotation Xrotation Yrotation
                        End Site
                        {
                          OFFSET 0.0081 -0.0158 0.008
                        }
                      }
                    }
                  }
                }
              }
            }
          }
        }
        JOINT rCollar
        {
          OFFSET -1.7069 20.075 5.0056
          CHANNELS 6 Xposition Yposition Zposition Zrotation Xrotation Yrotation
          JOINT rShldr
          {
            OFFSET -13.6458 -0.047 -4.849
            CHANNELS 6 Xposition Yposition Zposition Zrotation Xrotation Yrotation
            JOINT rForeArm
            {
              OFFSET -28.3255 -0.9759 2.2888
              CHANNELS 6 Xposition Yposition Zposition Zrotation Xrotation Yrotation
              JOINT rHand
              {
                OFFSET -22.1583 -0.53 10.8316
                CHANNELS 6 Xposition Yposition Zposition Zrotation Xrotation Yrotation
                JOINT rThumb1
                {
                  OFFSET -0.786 0.112 2.5817
                  CHANNELS 6 Xposition Yposition Zposition Zrotation Xrotation Yrotation
                  JOINT rThumb2
                  {
                    OFFSET -0.3601 -0.878 4.2331
                    CHANNELS 6 Xposition Yposition Zposition Zrotation Xrotation Yrotation
                    JOINT rThumb2_End
                    {
                      OFFSET -1.8127 -1.216 2.2227
                      CHANNELS 6 Xposition Yposition Zposition Zrotation Xrotation Yrotation
                      End Site
                      {
                        OFFSET -0.0181 -0.0122 0.0222
                      }
                    }
                  }
                }
                JOINT rCarpal1
                {
                  OFFSET -0.9571 1.114 1.7695
                  CHANNELS 6 Xposition Yposition Zposition Zrotation Xrotation Yrotation
                  JOINT rIndex1
                  {
                    OFFSET -4.1246 0.487 4.1451
                    CHANNELS 6 Xposition Yposition Zposition Zrotation Xrotation Yrotation
                    JOINT rIndex2
                    {
                      OFFSET -3.4052 -1.454 2.7682
                      CHANNELS 6 Xposition Yposition Zposition Zrotation Xrotation Yrotation
                      JOINT rIndex2_End
                      {
                        OFFSET -1.4531 -1.795 1.2713
                        CHANNELS 6 Xposition Yposition Zposition Zrotation Xrotation Yrotation
                        End Site
                        {
                          OFFSET -0.0145 -0.018 0.0127
                        }
                      }
                    }
                  }
                  JOINT rMid1
                  {
                    OFFSET -5.6954 0.21 2.1184
                    CHANNELS 6 Xposition Yposition Zposition Zrotation Xrotation Yrotation
                    JOINT rMid2
                    {
                      OFFSET -3.9766 -1.54 2.3863
                      CHANNELS 6 Xposition Yposition Zposition Zrotation Xrotation Yrotation
                      JOINT rMid2_End
                      {
                        OFFSET -1.4042 -1.926 1.125
                        CHANNELS 6 Xposition Yposition Zposition Zrotation Xrotation Yrotation
                        End Site
                        {
                          OFFSET -0.014 -0.0193 0.0113
                        }
                      }
                    }
                  }
                }
                JOINT rCarpal2
                {
                  OFFSET -2.0956 0.66 -0.3894
                  CHANNELS 6 Xposition Yposition Zposition Zrotation Xrotation Yrotation
                  JOINT rRing1
                  {
                    OFFSET -5.0395 -0.09 2.4971
                    CHANNELS 6 Xposition Yposition Zposition Zrotation Xrotation Yrotation
                    JOINT rRing2
                    {
                      OFFSET -3.7921 -1.552 1.4806
                      CHANNELS 6 Xposition Yposition Zposition Zrotation Xrotation Yrotation
                      JOINT rRing2_End
                      {
                        OFFSET -1.4655 -1.808 0.9609
                        CHANNELS 6 Xposition Yposition Zposition Zrotation Xrotation Yrotation
                        End Site
                        {
                          OFFSET -0.0147 -0.0181 0.0096
                        }
                      }
                    }
                  }
                  JOINT rPinky1
                  {
                    OFFSET -4.9141 -1.269 0.3592
                    CHANNELS 6 Xposition Yposition Zposition Zrotation Xrotation Yrotation
                    JOINT rPinky2
                    {
                      OFFSET -3.1477 -1.685 0.8462
                      CHANNELS 6 Xposition Yposition Zposition Zrotation Xrotation Yrotation
                      JOINT rPinky2_End
                      {
                        OFFSET -0.8055 -1.585 0.7955
                        CHANNELS 6 Xposition Yposition Zposition Zrotation Xrotation Yrotation
                        End Site
                        {
                          OFFSET -0.0081 -0.0158 0.008
                        }
                      }
                    }
                  }
                }
              }
            }
          }
        }
      }
    }
  }
  JOINT lThigh
  {
    OFFSET 8.367 -8.2066 0.5982
    CHANNELS 6 Xposition Yposition Zposition Zrotation Xrotation Yrotation
    JOINT lShin
    {
      OFFSET 2.1923 -43.463 -0.4932
      CHANNELS 6 Xposition Yposition Zposition Zrotation Xrotation Yrotation
      JOINT lFoot
      {
        OFFSET 0.7333 -45.8593 -2.6451
        CHANNELS 6 Xposition Yposition Zposition Zrotation Xrotation Yrotation
        End Site
        {
          OFFSET 2.6618 -4.2699 12.3931
        }
      }
    }
  }
  JOINT rThigh
  {
    OFFSET -8.367 -8.2066 0.5982
    CHANNELS 6 Xposition Yposition Zposition Zrotation Xrotation Yrotation
    JOINT rShin
    {
      OFFSET -2.1923 -43.463 -0.4931
      CHANNELS 6 Xposition Yposition Zposition Zrotation Xrotation Yrotation
      JOINT rFoot
      {
        OFFSET -0.7333 -45.8593 -2.6451
        CHANNELS 6 Xposition Yposition Zposition Zrotation Xrotation Yrotation
        End Site
        {
          OFFSET -2.6618 -4.2699 12.3931
        }
      }
    }
  }
}
MOTION
Frames:	4
Frame Time:	0.0333333
42.4243 30.8396 31.4838 179.993 59.0055 -30.0017 0 -1.186 -1.5018 -0.831696 8.37506 4.08082 -3.55271e-015 9.964 0.2134 -2.30845 16.6668 8.42177 -7.10543e-015 13.134 -3.2573 -2.30846 16.6668 8.42177 0 20.686 -1.6905 0.000348563 13.9926 -6.89974e-005 3.55271e-015 7.238 -0.1237 -0.0996632 -0.159132 -0.00013804 1.7069 20.075 5.0056 -48.7945 1.10145 -2.07457 13.6458 -0.047 -4.849 -15.9216 54.9345 4.34938 28.3255 -0.9759 2.2888 9.15806 35.4428 6.60956 22.1583 -0.53 10.8316 0.418361 -14.6884 -10.7927 0.786 0.112 2.5817 -4.41391e-032 7.95139e-016 3.18055e-015 0.3601 -0.878 4.2331 -2.23161e-007 2.03181e-007 2.95917e-006 1.8127 -1.216 2.2227 -1.59028e-015 0 -1.27222e-014 0.9571 1.114 1.7695 -7.95139e-016 1.19271e-015 3.18055e-015 4.1246 0.487 4.1451 1.59028e-015 -7.95139e-016 1.27222e-014 3.4052 -1.454 2.7682 -2.23161e-007 2.03181e-007 2.95917e-006 1.4531 -1.795 1.2713 -7.95139e-016 -7.95139e-016 -0 5.6954 0.21 2.1184 1.59028e-015 -7.95139e-016 1.27222e-014 3.9766 -1.54 2.3863 -2.23161e-007 2.03181e-007 2.95917e-006 1.4042 -1.926 1.125 -7.95139e-016 -7.95139e-016 -0 2.0956 0.66 -0.3894 -7.95139e-016 1.19271e-015 3.18055e-015 5.0395 -0.09 2.4971 1.59028e-015 -7.95139e-016 1.27222e-014 3.7921 -1.552 1.4806 -2.23161e-007 2.03181e-007 2.95917e-006 1.4655 -1.808 0.9609 -7.95139e-016 -7.95139e-016 -0 4.9141 -1.269 0.3591 1.59028e-015 -7.95139e-016 1.27222e-014 3.1477 -1.685 0.8462 -2.23161e-007 2.03181e-007 2.95917e-006 0.8055 -1.585 0.7955 -7.95139e-016 -7.95139e-016 -0 -1.7069 20.075 5.0056 -16.6064 -0.804507 29.4841 -13.6458 -0.047 -4.849 84.2436 -29.9383 19.696 -28.3255 -0.9759 2.2888 22.3577 29.1019 8.09409 -22.1583 -0.53 10.8316 31.4932 -24.0448 -7.84827 -0.786 0.112 2.5817 -3.05099e-006 -7.13114e-006 -8.75455e-006 -0.3601 -0.878 4.2331 3.18055e-015 -1.59028e-015 2.78299e-015 -1.8127 -1.216 2.2227 -3.18055e-015 3.97569e-016 1.59028e-015 -0.9571 1.114 1.7695 -1.59028e-014 -1.59028e-015 1.59028e-015 -4.1246 0.487 4.1451 -3.05099e-006 -7.13114e-006 -8.75455e-006 -3.4052 -1.454 2.7682 -9.54166e-015 -1.19271e-015 2.78299e-015 -1.4531 -1.795 1.2713 -3.18055e-015 -3.97569e-016 1.19271e-015 -5.6954 0.21 2.1184 -3.05099e-006 -7.13114e-006 -8.75455e-006 -3.9766 -1.54 2.3863 -9.54166e-015 -1.19271e-015 2.78299e-015 -1.4042 -1.926 1.125 -3.18055e-015 -3.97569e-016 1.19271e-015 -2.0956 0.66 -0.3894 -1.59028e-014 -1.59028e-015 1.59028e-015 -5.0395 -0.09 2.4971 -3.05099e-006 -7.13114e-006 -8.75455e-006 -3.7921 -1.552 1.4806 -9.54166e-015 -1.19271e-015 2.78299e-015 -1.4655 -1.808 0.9609 -3.18055e-015 -3.97569e-016 1.19271e-015 -4.9141 -1.269 0.3592 -3.05099e-006 -7.13114e-006 -8.75455e-006 -3.1477 -1.685 0.8462 -9.54166e-015 -1.19271e-015 2.78299e-015 -0.8055 -1.585 0.7955 -3.18055e-015 -3.97569e-016 1.19271e-015 8.367 -8.2066 0.5982 62.2676 -53.7064 64.0123 2.1923 -43.463 -0.4932 3.12317 17.8843 0.397667 0.7333 -45.8593 -2.6451 6.54828 0.359499 -0.392493 -8.367 -8.2066 0.5982 -86.0154 -47.0831 -81.0727 -2.1923 -43.463 -0.4931 -122.949 68.4188 147.336 -0.7333 -45.8593 -2.6451 -28.4926 17.1004 5.1063 
42.4326 30.8428 31.4988 179.993 59.0055 -30.0017 3.55271e-015 -1.186 -1.5018 -0.862339 8.47137 4.07774 7.10543e-015 9.964 0.2134 -2.3786 16.8569 8.42499 -3.55271e-015 13.134 -3.2573 -2.3786 16.8569 8.42499 3.55271e-015 20.686 -1.6905 2.23009e-005 13.9932 9.2648e-007 0 7.238 -0.1237 -0.0996673 -0.159114 -0.000138603 1.7069 20.075 5.0056 -47.9252 0.969543 -2.40404 13.6458 -0.047 -4.849 -16.8752 54.9361 4.38747 28.3255 -0.9759 2.2888 9.36798 35.3958 6.36499 22.1583 -0.53 10.8316 0.393641 -14.8856 -10.584 0.786 0.112 2.5817 7.95139e-016 -1.19271e-015 3.18055e-015 0.3601 -0.878 4.2331 -6.33615e-007 7.91203e-007 5.91016e-006 1.8127 -1.216 2.2227 3.35184e-007 2.12829e-007 3.17792e-006 0.9571 1.114 1.7695 7.95139e-016 -3.97569e-016 3.18055e-015 4.1246 0.487 4.1451 3.18055e-015 -3.97569e-016 1.27222e-014 3.4052 -1.454 2.7682 -6.33615e-007 7.91203e-007 5.91016e-006 1.4531 -1.795 1.2713 3.35184e-007 2.12829e-007 3.17792e-006 5.6954 0.21 2.1184 3.18055e-015 -3.97569e-016 1.27222e-014 3.9766 -1.54 2.3863 -6.33615e-007 7.91203e-007 5.91016e-006 1.4042 -1.926 1.125 3.35184e-007 2.12829e-007 3.17792e-006 2.0956 0.66 -0.3894 7.95139e-016 -3.97569e-016 3.18055e-015 5.0395 -0.09 2.4971 3.18055e-015 -3.97569e-016 1.27222e-014 3.7921 -1.552 1.4806 -6.33615e-007 7.91203e-007 5.91016e-006 1.4655 -1.808 0.9609 3.35184e-007 2.12829e-007 3.17792e-006 4.9141 -1.269 0.3591 3.18055e-015 -3.97569e-016 1.27222e-014 3.1477 -1.685 0.8462 -6.33615e-007 7.91203e-007 5.91016e-006 0.8055 -1.585 0.7955 3.35184e-007 2.12829e-007 3.17792e-006 -1.7069 20.075 5.0056 -16.8164 -1.30956 29.2406 -13.6458 -0.047 -4.849 84.3445 -29.8929 19.685 -28.3255 -0.9759 2.2888 22.4247 29.1315 8.18542 -22.1583 -0.53 10.8316 31.8494 -24.0194 -7.16604 -0.786 0.112 2.5817 -9.54166e-015 -1.19271e-015 1.98785e-015 -0.3601 -0.878 4.2331 -1.59028e-014 -3.97569e-015 3.97569e-016 -1.8127 -1.216 2.2227 3.18055e-015 0 -3.97569e-016 -0.9571 1.114 1.7695 -9.54166e-015 3.97569e-016 1.19271e-015 -4.1246 0.487 4.1451 -1.59028e-014 -8.34896e-015 7.15625e-015 -3.4052 -1.454 2.7682 -6.36111e-015 2.38542e-015 -2.78299e-015 -1.4531 -1.795 1.2713 9.54166e-015 -3.18055e-015 1.19271e-015 -5.6954 0.21 2.1184 -1.59028e-014 -8.34896e-015 7.15625e-015 -3.9766 -1.54 2.3863 -6.36111e-015 2.38542e-015 -2.78299e-015 -1.4042 -1.926 1.125 9.54166e-015 -3.18055e-015 1.19271e-015 -2.0956 0.66 -0.3894 -9.54166e-015 3.97569e-016 1.19271e-015 -5.0395 -0.09 2.4971 -1.59028e-014 -8.34896e-015 7.15625e-015 -3.7921 -1.552 1.4806 -6.36111e-015 2.38542e-015 -2.78299e-015 -1.4655 -1.808 0.9609 9.54166e-015 -3.18055e-015 1.19271e-015 -4.9141 -1.269 0.3592 -1.59028e-014 -8.34896e-015 7.15625e-015 -3.1477 -1.685 0.8462 -6.36111e-015 2.38542e-015 -2.78299e-015 -0.8055 -1.585 0.7955 9.54166e-015 -3.18055e-015 1.19271e-015 8.367 -8.2066 0.5982 62.2724 -53.702 64.0156 2.1923 -43.463 -0.4932 3.12384 17.9044 0.397356 0.7333 -45.8593 -2.6451 6.54244 0.340025 -0.39134 -8.367 -8.2066 0.5982 -85.5825 -46.8874 -80.7436 -2.1923 -43.463 -0.4931 -122.677 68.3571 147.101 -0.7333 -45.8593 -2.6451 -28.489 17.1079 5.10444 
42.441 30.8462 31.5139 179.993 59.0055 -30.0017 3.55271e-015 -1.186 -1.5018 -0.892931 8.56767 4.07445 0 9.964 0.2134 -2.44865 17.047 8.42783 -3.55271e-015 13.134 -3.2573 -2.44865 17.047 8.42783 3.55271e-015 20.686 -1.6905 2.94986e-005 13.9931 1.7569e-005 0 7.238 -0.1237 -0.0996643 -0.159112 -0.000137469 1.7069 20.075 5.0056 -47.0569 0.832674 -2.73137 13.6458 -0.047 -4.849 -17.8286 54.9374 4.42558 28.3255 -0.9759 2.2888 9.57754 35.348 6.12077 22.1583 -0.53 10.8316 0.369644 -15.0828 -10.3753 0.786 0.112 2.5817 -9.26597e-008 1.92047e-007 -7.04392e-009 0.3601 -0.878 4.2331 9.26597e-008 -1.92047e-007 7.0439e-009 1.8127 -1.216 2.2227 -9.26597e-008 1.92047e-007 -7.0439e-009 0.9571 1.114 1.7695 7.95139e-016 3.97569e-016 -3.18055e-015 4.1246 0.487 4.1451 -9.26597e-008 1.92047e-007 -7.04391e-009 3.4052 -1.454 2.7682 9.26597e-008 -1.92047e-007 7.04391e-009 1.4531 -1.795 1.2713 -9.26597e-008 1.92047e-007 -7.0439e-009 5.6954 0.21 2.1184 -9.26597e-008 1.92047e-007 -7.04391e-009 3.9766 -1.54 2.3863 9.26597e-008 -1.92047e-007 7.04391e-009 1.4042 -1.926 1.125 -9.26597e-008 1.92047e-007 -7.0439e-009 2.0956 0.66 -0.3894 7.95139e-016 3.97569e-016 -3.18055e-015 5.0395 -0.09 2.4971 -9.26597e-008 1.92047e-007 -7.04391e-009 3.7921 -1.552 1.4806 9.26597e-008 -1.92047e-007 7.04391e-009 1.4655 -1.808 0.9609 -9.26597e-008 1.92047e-007 -7.0439e-009 4.9141 -1.269 0.3591 -9.26597e-008 1.92047e-007 -7.04391e-009 3.1477 -1.685 0.8462 9.26597e-008 -1.92047e-007 7.04391e-009 0.8055 -1.585 0.7955 -9.26597e-008 1.92047e-007 -7.0439e-009 -1.7069 20.075 5.0056 -17.0287 -1.81368 28.9953 -13.6458 -0.047 -4.849 84.4453 -29.8474 19.6739 -28.3255 -0.9759 2.2888 22.4917 29.1611 8.27676 -22.1583 -0.53 10.8316 32.2051 -23.9903 -6.48424 -0.786 0.112 2.5817 -3.18055e-015 -4.77083e-015 2.78299e-015 -0.3601 -0.878 4.2331 -3.18055e-015 -1.59028e-015 -1.59028e-015 -1.8127 -1.216 2.2227 -9.54166e-015 -5.1684e-015 1.59028e-015 -0.9571 1.114 1.7695 -3.18055e-015 -3.18055e-015 1.98785e-015 -4.1246 0.487 4.1451 -3.18055e-015 -9.14409e-015 5.56597e-015 -3.4052 -1.454 2.7682 -6.36111e-015 -3.18055e-015 1.19271e-015 -1.4531 -1.795 1.2713 6.36111e-015 -1.59028e-015 1.59028e-015 -5.6954 0.21 2.1184 -3.18055e-015 -9.14409e-015 5.56597e-015 -3.9766 -1.54 2.3863 -6.36111e-015 -3.18055e-015 1.19271e-015 -1.4042 -1.926 1.125 6.36111e-015 -1.59028e-015 1.59028e-015 -2.0956 0.66 -0.3894 -3.18055e-015 -3.18055e-015 1.98785e-015 -5.0395 -0.09 2.4971 -3.18055e-015 -9.14409e-015 5.56597e-015 -3.7921 -1.552 1.4806 -6.36111e-015 -3.18055e-015 1.19271e-015 -1.4655 -1.808 0.9609 6.36111e-015 -1.59028e-015 1.59028e-015 -4.9141 -1.269 0.3592 -3.18055e-015 -9.14409e-015 5.56597e-015 -3.1477 -1.685 0.8462 -6.36111e-015 -3.18055e-015 1.19271e-015 -0.8055 -1.585 0.7955 6.36111e-015 -1.59028e-015 1.59028e-015 8.367 -8.2066 0.5982 62.2771 -53.6975 64.019 2.1923 -43.463 -0.4932 3.1245 17.9245 0.397036 0.7333 -45.8593 -2.6451 6.53653 0.32057 -0.390187 -8.367 -8.2066 0.5982 -85.1527 -46.6901 -80.4178 -2.1923 -43.463 -0.4931 -122.408 68.295 146.868 -0.7333 -45.8593 -2.6451 -28.4855 17.1153 5.10255 
42.4494 30.8495 31.5289 179.993 59.0055 -30.0017 5.32907e-015 -1.186 -1.5018 -0.923453 8.66396 4.07091 0 9.964 0.2134 -2.51857 17.237 8.4303 0 13.134 -3.2573 -2.51857 17.237 8.4303 7.10543e-015 20.686 -1.6905 -1.54173e-005 13.9936 2.86823e-006 -7.10543e-015 7.238 -0.1237 -0.0996628 -0.159124 -0.0001393 1.7069 20.075 5.0056 -46.1898 0.690926 -3.05644 13.6458 -0.047 -4.849 -18.7816 54.9383 4.46373 28.3255 -0.9759 2.2888 9.78671 35.2995 5.87692 22.1583 -0.53 10.8316 0.346367 -15.2801 -10.1663 0.786 0.112 2.5817 -7.95139e-016 7.95139e-016 -0 0.3601 -0.878 4.2331 7.95139e-016 0 -3.18055e-015 1.8127 -1.216 2.2227 -7.95139e-016 0 3.18055e-015 0.9571 1.114 1.7695 -7.95139e-016 7.95139e-016 -0 4.1246 0.487 4.1451 7.95139e-016 3.97569e-016 9.54166e-015 3.4052 -1.454 2.7682 2.38542e-015 3.97569e-016 3.18055e-015 1.4531 -1.795 1.2713 1.59028e-015 0 9.54166e-015 5.6954 0.21 2.1184 7.95139e-016 3.97569e-016 9.54166e-015 3.9766 -1.54 2.3863 2.38542e-015 3.97569e-016 3.18055e-015 1.4042 -1.926 1.125 1.59028e-015 0 9.54166e-015 2.0956 0.66 -0.3894 -7.95139e-016 7.95139e-016 -0 5.0395 -0.09 2.4971 7.95139e-016 3.97569e-016 9.54166e-015 3.7921 -1.552 1.4806 2.38542e-015 3.97569e-016 3.18055e-015 1.4655 -1.808 0.9609 1.59028e-015 0 9.54166e-015 4.9141 -1.269 0.3591 7.95139e-016 3.97569e-016 9.54166e-015 3.1477 -1.685 0.8462 2.38542e-015 3.97569e-016 3.18055e-015 0.8055 -1.585 0.7955 1.59028e-015 0 9.54166e-015 -1.7069 20.075 5.0056 -17.2431 -2.31679 28.7481 -13.6458 -0.047 -4.849 84.5462 -29.8021 19.6628 -28.3255 -0.9759 2.2888 22.5587 29.1909 8.36807 -22.1583 -0.53 10.8316 32.5602 -23.9572 -5.80292 -0.786 0.112 2.5817 -3.18055e-015 2.38542e-015 3.97569e-016 -0.3601 -0.878 4.2331 9.54166e-015 5.1684e-015 3.97569e-016 -1.8127 -1.216 2.2227 -3.97114e-006 1.58268e-006 -4.75621e-006 -0.9571 1.114 1.7695 -3.18055e-015 7.95139e-016 3.97569e-016 -4.1246 0.487 4.1451 6.36111e-015 -1.98785e-015 7.15625e-015 -3.4052 -1.454 2.7682 -3.18055e-015 3.57812e-015 -1.59028e-015 -1.4531 -1.795 1.2713 -3.97114e-006 1.58268e-006 -4.75621e-006 -5.6954 0.21 2.1184 6.36111e-015 -1.98785e-015 7.15625e-015 -3.9766 -1.54 2.3863 -3.18055e-015 3.57812e-015 -1.59028e-015 -1.4042 -1.926 1.125 -3.97114e-006 1.58268e-006 -4.75621e-006 -2.0956 0.66 -0.3894 -3.18055e-015 7.95139e-016 3.97569e-016 -5.0395 -0.09 2.4971 6.36111e-015 -1.98785e-015 7.15625e-015 -3.7921 -1.552 1.4806 -3.18055e-015 3.57812e-015 -1.59028e-015 -1.4655 -1.808 0.9609 -3.97114e-006 1.58268e-006 -4.75621e-006 -4.9141 -1.269 0.3592 6.36111e-015 -1.98785e-015 7.15625e-015 -3.1477 -1.685 0.8462 -3.18055e-015 3.57812e-015 -1.59028e-015 -0.8055 -1.585 0.7955 -3.97114e-006 1.58268e-006 -4.75621e-006 8.367 -8.2066 0.5982 62.282 -53.693 64.0225 2.1923 -43.463 -0.4932 3.12517 17.9447 0.396695 0.7333 -45.8593 -2.6451 6.53057 0.301135 -0.389032 -8.367 -8.2066 0.5982 -84.7261 -46.4914 -80.0954 -2.1923 -43.463 -0.4931 -122.14 68.2324 146.637 -0.7333 -45.8593 -2.6451 -28.4819 17.1228 5.10051 
